<svg xmlns="http://www.w3.org/2000/svg" version="1.1" xmlns:xlink="http://www.w3.org/1999/xlink" xmlns:svgjs="http://svgjs.dev/svgjs" viewBox="0 0 800 800"><g fill="none" stroke-width="0.5" stroke="hsl(265, 55%, 20%)" stroke-linecap="round"><line x1="604" y1="400" x2="196" y2="400" transform="rotate(0, 400, 400)" opacity="0.17"></line><line x1="231" y1="400" x2="569" y2="400" transform="rotate(2, 400, 400)" opacity="0.59"></line><line x1="73.5" y1="400" x2="726.5" y2="400" transform="rotate(4, 400, 400)" opacity="0.40"></line><line x1="194.5" y1="400" x2="605.5" y2="400" transform="rotate(6, 400, 400)" opacity="0.84"></line><line x1="536" y1="400" x2="264" y2="400" transform="rotate(8, 400, 400)" opacity="0.90"></line><line x1="263" y1="400" x2="537" y2="400" transform="rotate(10, 400, 400)" opacity="0.78"></line><line x1="269.5" y1="400" x2="530.5" y2="400" transform="rotate(12, 400, 400)" opacity="0.15"></line><line x1="136.5" y1="400" x2="663.5" y2="400" transform="rotate(14, 400, 400)" opacity="0.68"></line><line x1="269.5" y1="400" x2="530.5" y2="400" transform="rotate(16, 400, 400)" opacity="0.17"></line><line x1="507.5" y1="400" x2="292.5" y2="400" transform="rotate(18, 400, 400)" opacity="0.24"></line><line x1="279" y1="400" x2="521" y2="400" transform="rotate(20, 400, 400)" opacity="0.78"></line><line x1="123.5" y1="400" x2="676.5" y2="400" transform="rotate(22, 400, 400)" opacity="0.60"></line><line x1="171.5" y1="400" x2="628.5" y2="400" transform="rotate(24, 400, 400)" opacity="0.54"></line><line x1="369.5" y1="400" x2="430.5" y2="400" transform="rotate(26, 400, 400)" opacity="0.86"></line><line x1="221.5" y1="400" x2="578.5" y2="400" transform="rotate(28, 400, 400)" opacity="0.52"></line><line x1="241.5" y1="400" x2="558.5" y2="400" transform="rotate(30, 400, 400)" opacity="0.40"></line><line x1="279.5" y1="400" x2="520.5" y2="400" transform="rotate(32, 400, 400)" opacity="0.12"></line><line x1="261.5" y1="400" x2="538.5" y2="400" transform="rotate(34, 400, 400)" opacity="0.16"></line><line x1="435.5" y1="400" x2="364.5" y2="400" transform="rotate(36, 400, 400)" opacity="0.20"></line><line x1="398.5" y1="400" x2="401.5" y2="400" transform="rotate(38, 400, 400)" opacity="0.58"></line><line x1="296" y1="400" x2="504" y2="400" transform="rotate(40, 400, 400)" opacity="0.12"></line><line x1="294.5" y1="400" x2="505.5" y2="400" transform="rotate(42, 400, 400)" opacity="0.48"></line><line x1="328.5" y1="400" x2="471.5" y2="400" transform="rotate(44, 400, 400)" opacity="0.22"></line><line x1="268" y1="400" x2="532" y2="400" transform="rotate(46, 400, 400)" opacity="0.31"></line><line x1="314.5" y1="400" x2="485.5" y2="400" transform="rotate(48, 400, 400)" opacity="0.37"></line><line x1="373.5" y1="400" x2="426.5" y2="400" transform="rotate(50, 400, 400)" opacity="0.07"></line><line x1="532" y1="400" x2="268" y2="400" transform="rotate(52, 400, 400)" opacity="0.58"></line><line x1="454.5" y1="400" x2="345.5" y2="400" transform="rotate(54, 400, 400)" opacity="0.21"></line><line x1="73.5" y1="400" x2="726.5" y2="400" transform="rotate(56, 400, 400)" opacity="0.78"></line><line x1="52" y1="400" x2="748" y2="400" transform="rotate(58, 400, 400)" opacity="0.73"></line><line x1="128.5" y1="400" x2="671.5" y2="400" transform="rotate(60, 400, 400)" opacity="0.20"></line><line x1="208" y1="400" x2="592" y2="400" transform="rotate(62, 400, 400)" opacity="0.32"></line><line x1="306.5" y1="400" x2="493.5" y2="400" transform="rotate(64, 400, 400)" opacity="0.49"></line><line x1="200" y1="400" x2="600" y2="400" transform="rotate(66, 400, 400)" opacity="0.64"></line><line x1="520" y1="400" x2="280" y2="400" transform="rotate(68, 400, 400)" opacity="1.00"></line><line x1="109" y1="400" x2="691" y2="400" transform="rotate(70, 400, 400)" opacity="0.92"></line><line x1="221.5" y1="400" x2="578.5" y2="400" transform="rotate(72, 400, 400)" opacity="0.67"></line><line x1="514.5" y1="400" x2="285.5" y2="400" transform="rotate(74, 400, 400)" opacity="0.21"></line><line x1="67.5" y1="400" x2="732.5" y2="400" transform="rotate(76, 400, 400)" opacity="0.36"></line><line x1="157.5" y1="400" x2="642.5" y2="400" transform="rotate(78, 400, 400)" opacity="0.83"></line><line x1="298" y1="400" x2="502" y2="400" transform="rotate(80, 400, 400)" opacity="0.43"></line><line x1="53.5" y1="400" x2="746.5" y2="400" transform="rotate(82, 400, 400)" opacity="0.35"></line><line x1="104" y1="400" x2="696" y2="400" transform="rotate(84, 400, 400)" opacity="0.87"></line><line x1="289" y1="400" x2="511" y2="400" transform="rotate(86, 400, 400)" opacity="0.65"></line><line x1="347.5" y1="400" x2="452.5" y2="400" transform="rotate(88, 400, 400)" opacity="0.14"></line><line x1="604" y1="400" x2="196" y2="400" transform="rotate(90, 400, 400)" opacity="0.39"></line><line x1="446" y1="400" x2="354" y2="400" transform="rotate(92, 400, 400)" opacity="0.17"></line><line x1="526.5" y1="400" x2="273.5" y2="400" transform="rotate(94, 400, 400)" opacity="0.41"></line><line x1="331" y1="400" x2="469" y2="400" transform="rotate(96, 400, 400)" opacity="0.28"></line><line x1="281" y1="400" x2="519" y2="400" transform="rotate(98, 400, 400)" opacity="0.73"></line><line x1="73" y1="400" x2="727" y2="400" transform="rotate(100, 400, 400)" opacity="0.39"></line><line x1="212" y1="400" x2="588" y2="400" transform="rotate(102, 400, 400)" opacity="0.32"></line><line x1="447.5" y1="400" x2="352.5" y2="400" transform="rotate(104, 400, 400)" opacity="0.76"></line><line x1="508.5" y1="400" x2="291.5" y2="400" transform="rotate(106, 400, 400)" opacity="0.91"></line><line x1="93" y1="400" x2="707" y2="400" transform="rotate(108, 400, 400)" opacity="0.24"></line><line x1="260.5" y1="400" x2="539.5" y2="400" transform="rotate(110, 400, 400)" opacity="0.89"></line><line x1="174" y1="400" x2="626" y2="400" transform="rotate(112, 400, 400)" opacity="0.50"></line><line x1="196" y1="400" x2="604" y2="400" transform="rotate(114, 400, 400)" opacity="0.79"></line><line x1="46" y1="400" x2="754" y2="400" transform="rotate(116, 400, 400)" opacity="0.88"></line><line x1="302" y1="400" x2="498" y2="400" transform="rotate(118, 400, 400)" opacity="0.57"></line><line x1="498.5" y1="400" x2="301.5" y2="400" transform="rotate(120, 400, 400)" opacity="0.12"></line><line x1="156" y1="400" x2="644" y2="400" transform="rotate(122, 400, 400)" opacity="0.58"></line><line x1="565.5" y1="400" x2="234.5" y2="400" transform="rotate(124, 400, 400)" opacity="0.23"></line><line x1="599.5" y1="400" x2="200.5" y2="400" transform="rotate(126, 400, 400)" opacity="0.28"></line><line x1="77" y1="400" x2="723" y2="400" transform="rotate(128, 400, 400)" opacity="0.29"></line><line x1="325" y1="400" x2="475" y2="400" transform="rotate(130, 400, 400)" opacity="0.40"></line><line x1="319" y1="400" x2="481" y2="400" transform="rotate(132, 400, 400)" opacity="0.20"></line><line x1="489.5" y1="400" x2="310.5" y2="400" transform="rotate(134, 400, 400)" opacity="0.66"></line><line x1="322.5" y1="400" x2="477.5" y2="400" transform="rotate(136, 400, 400)" opacity="0.83"></line><line x1="440.5" y1="400" x2="359.5" y2="400" transform="rotate(138, 400, 400)" opacity="0.98"></line><line x1="424.5" y1="400" x2="375.5" y2="400" transform="rotate(140, 400, 400)" opacity="0.46"></line><line x1="386" y1="400" x2="414" y2="400" transform="rotate(142, 400, 400)" opacity="0.42"></line><line x1="53.5" y1="400" x2="746.5" y2="400" transform="rotate(144, 400, 400)" opacity="0.28"></line><line x1="519" y1="400" x2="281" y2="400" transform="rotate(146, 400, 400)" opacity="0.71"></line><line x1="70" y1="400" x2="730" y2="400" transform="rotate(148, 400, 400)" opacity="0.35"></line><line x1="560" y1="400" x2="240" y2="400" transform="rotate(150, 400, 400)" opacity="0.40"></line><line x1="491.5" y1="400" x2="308.5" y2="400" transform="rotate(152, 400, 400)" opacity="0.58"></line><line x1="250" y1="400" x2="550" y2="400" transform="rotate(154, 400, 400)" opacity="0.39"></line><line x1="56" y1="400" x2="744" y2="400" transform="rotate(156, 400, 400)" opacity="0.67"></line><line x1="424" y1="400" x2="376" y2="400" transform="rotate(158, 400, 400)" opacity="0.72"></line><line x1="590" y1="400" x2="210" y2="400" transform="rotate(160, 400, 400)" opacity="0.43"></line><line x1="410" y1="400" x2="390" y2="400" transform="rotate(162, 400, 400)" opacity="0.71"></line><line x1="50" y1="400" x2="750" y2="400" transform="rotate(164, 400, 400)" opacity="0.82"></line><line x1="455.5" y1="400" x2="344.5" y2="400" transform="rotate(166, 400, 400)" opacity="0.78"></line><line x1="484" y1="400" x2="316" y2="400" transform="rotate(168, 400, 400)" opacity="0.20"></line><line x1="83" y1="400" x2="717" y2="400" transform="rotate(170, 400, 400)" opacity="0.80"></line><line x1="172" y1="400" x2="628" y2="400" transform="rotate(172, 400, 400)" opacity="0.45"></line><line x1="387" y1="400" x2="413" y2="400" transform="rotate(174, 400, 400)" opacity="0.25"></line><line x1="556" y1="400" x2="244" y2="400" transform="rotate(176, 400, 400)" opacity="0.21"></line><line x1="92" y1="400" x2="708" y2="400" transform="rotate(178, 400, 400)" opacity="0.30"></line><line x1="557" y1="400" x2="243" y2="400" transform="rotate(180, 400, 400)" opacity="0.53"></line><line x1="450.5" y1="400" x2="349.5" y2="400" transform="rotate(182, 400, 400)" opacity="0.95"></line><line x1="532.5" y1="400" x2="267.5" y2="400" transform="rotate(184, 400, 400)" opacity="0.53"></line><line x1="592" y1="400" x2="208" y2="400" transform="rotate(186, 400, 400)" opacity="0.71"></line><line x1="337" y1="400" x2="463" y2="400" transform="rotate(188, 400, 400)" opacity="0.26"></line><line x1="62" y1="400" x2="738" y2="400" transform="rotate(190, 400, 400)" opacity="0.70"></line><line x1="295.5" y1="400" x2="504.5" y2="400" transform="rotate(192, 400, 400)" opacity="0.09"></line><line x1="335" y1="400" x2="465" y2="400" transform="rotate(194, 400, 400)" opacity="0.57"></line><line x1="470" y1="400" x2="330" y2="400" transform="rotate(196, 400, 400)" opacity="0.99"></line><line x1="370" y1="400" x2="430" y2="400" transform="rotate(198, 400, 400)" opacity="0.81"></line><line x1="549.5" y1="400" x2="250.5" y2="400" transform="rotate(200, 400, 400)" opacity="0.97"></line><line x1="330" y1="400" x2="470" y2="400" transform="rotate(202, 400, 400)" opacity="0.95"></line><line x1="96.5" y1="400" x2="703.5" y2="400" transform="rotate(204, 400, 400)" opacity="0.65"></line><line x1="564" y1="400" x2="236" y2="400" transform="rotate(206, 400, 400)" opacity="0.24"></line><line x1="604.5" y1="400" x2="195.5" y2="400" transform="rotate(208, 400, 400)" opacity="0.76"></line><line x1="384.5" y1="400" x2="415.5" y2="400" transform="rotate(210, 400, 400)" opacity="0.21"></line><line x1="600" y1="400" x2="200" y2="400" transform="rotate(212, 400, 400)" opacity="0.26"></line><line x1="582.5" y1="400" x2="217.5" y2="400" transform="rotate(214, 400, 400)" opacity="0.13"></line><line x1="387" y1="400" x2="413" y2="400" transform="rotate(216, 400, 400)" opacity="0.48"></line><line x1="574.5" y1="400" x2="225.5" y2="400" transform="rotate(218, 400, 400)" opacity="0.79"></line><line x1="510" y1="400" x2="290" y2="400" transform="rotate(220, 400, 400)" opacity="0.98"></line><line x1="298" y1="400" x2="502" y2="400" transform="rotate(222, 400, 400)" opacity="0.69"></line><line x1="412.5" y1="400" x2="387.5" y2="400" transform="rotate(224, 400, 400)" opacity="0.13"></line><line x1="549" y1="400" x2="251" y2="400" transform="rotate(226, 400, 400)" opacity="0.14"></line><line x1="118" y1="400" x2="682" y2="400" transform="rotate(228, 400, 400)" opacity="0.91"></line><line x1="450.5" y1="400" x2="349.5" y2="400" transform="rotate(230, 400, 400)" opacity="0.09"></line><line x1="227" y1="400" x2="573" y2="400" transform="rotate(232, 400, 400)" opacity="0.69"></line><line x1="511.5" y1="400" x2="288.5" y2="400" transform="rotate(234, 400, 400)" opacity="0.09"></line><line x1="429" y1="400" x2="371" y2="400" transform="rotate(236, 400, 400)" opacity="0.86"></line><line x1="130.5" y1="400" x2="669.5" y2="400" transform="rotate(238, 400, 400)" opacity="0.41"></line><line x1="492" y1="400" x2="308" y2="400" transform="rotate(240, 400, 400)" opacity="0.76"></line><line x1="477.5" y1="400" x2="322.5" y2="400" transform="rotate(242, 400, 400)" opacity="0.31"></line><line x1="454.5" y1="400" x2="345.5" y2="400" transform="rotate(244, 400, 400)" opacity="0.75"></line><line x1="423.5" y1="400" x2="376.5" y2="400" transform="rotate(246, 400, 400)" opacity="0.95"></line><line x1="335" y1="400" x2="465" y2="400" transform="rotate(248, 400, 400)" opacity="0.47"></line><line x1="289" y1="400" x2="511" y2="400" transform="rotate(250, 400, 400)" opacity="0.39"></line><line x1="452" y1="400" x2="348" y2="400" transform="rotate(252, 400, 400)" opacity="0.68"></line><line x1="109.5" y1="400" x2="690.5" y2="400" transform="rotate(254, 400, 400)" opacity="0.23"></line><line x1="284" y1="400" x2="516" y2="400" transform="rotate(256, 400, 400)" opacity="0.12"></line><line x1="441.5" y1="400" x2="358.5" y2="400" transform="rotate(258, 400, 400)" opacity="0.19"></line><line x1="166" y1="400" x2="634" y2="400" transform="rotate(260, 400, 400)" opacity="0.78"></line><line x1="436.5" y1="400" x2="363.5" y2="400" transform="rotate(262, 400, 400)" opacity="0.80"></line><line x1="356.5" y1="400" x2="443.5" y2="400" transform="rotate(264, 400, 400)" opacity="0.51"></line><line x1="501.5" y1="400" x2="298.5" y2="400" transform="rotate(266, 400, 400)" opacity="0.50"></line><line x1="81" y1="400" x2="719" y2="400" transform="rotate(268, 400, 400)" opacity="0.16"></line><line x1="350" y1="400" x2="450" y2="400" transform="rotate(270, 400, 400)" opacity="0.41"></line><line x1="146" y1="400" x2="654" y2="400" transform="rotate(272, 400, 400)" opacity="0.60"></line><line x1="44" y1="400" x2="756" y2="400" transform="rotate(274, 400, 400)" opacity="0.89"></line><line x1="539" y1="400" x2="261" y2="400" transform="rotate(276, 400, 400)" opacity="0.61"></line><line x1="475.5" y1="400" x2="324.5" y2="400" transform="rotate(278, 400, 400)" opacity="0.63"></line><line x1="393" y1="400" x2="407" y2="400" transform="rotate(280, 400, 400)" opacity="0.75"></line><line x1="237.5" y1="400" x2="562.5" y2="400" transform="rotate(282, 400, 400)" opacity="0.98"></line><line x1="100.5" y1="400" x2="699.5" y2="400" transform="rotate(284, 400, 400)" opacity="0.15"></line><line x1="161.5" y1="400" x2="638.5" y2="400" transform="rotate(286, 400, 400)" opacity="0.19"></line><line x1="131.5" y1="400" x2="668.5" y2="400" transform="rotate(288, 400, 400)" opacity="0.76"></line><line x1="549.5" y1="400" x2="250.5" y2="400" transform="rotate(290, 400, 400)" opacity="0.72"></line><line x1="188.5" y1="400" x2="611.5" y2="400" transform="rotate(292, 400, 400)" opacity="0.67"></line><line x1="243" y1="400" x2="557" y2="400" transform="rotate(294, 400, 400)" opacity="0.61"></line><line x1="221.5" y1="400" x2="578.5" y2="400" transform="rotate(296, 400, 400)" opacity="0.82"></line><line x1="554" y1="400" x2="246" y2="400" transform="rotate(298, 400, 400)" opacity="0.49"></line><line x1="473" y1="400" x2="327" y2="400" transform="rotate(300, 400, 400)" opacity="0.10"></line><line x1="79.5" y1="400" x2="720.5" y2="400" transform="rotate(302, 400, 400)" opacity="0.49"></line><line x1="128" y1="400" x2="672" y2="400" transform="rotate(304, 400, 400)" opacity="0.30"></line><line x1="210.5" y1="400" x2="589.5" y2="400" transform="rotate(306, 400, 400)" opacity="0.12"></line><line x1="311.5" y1="400" x2="488.5" y2="400" transform="rotate(308, 400, 400)" opacity="0.45"></line><line x1="221.5" y1="400" x2="578.5" y2="400" transform="rotate(310, 400, 400)" opacity="0.32"></line><line x1="366" y1="400" x2="434" y2="400" transform="rotate(312, 400, 400)" opacity="0.32"></line><line x1="166" y1="400" x2="634" y2="400" transform="rotate(314, 400, 400)" opacity="0.83"></line><line x1="533.5" y1="400" x2="266.5" y2="400" transform="rotate(316, 400, 400)" opacity="0.76"></line><line x1="178" y1="400" x2="622" y2="400" transform="rotate(318, 400, 400)" opacity="0.12"></line><line x1="591.5" y1="400" x2="208.5" y2="400" transform="rotate(320, 400, 400)" opacity="0.40"></line><line x1="488.5" y1="400" x2="311.5" y2="400" transform="rotate(322, 400, 400)" opacity="0.96"></line><line x1="510" y1="400" x2="290" y2="400" transform="rotate(324, 400, 400)" opacity="0.96"></line><line x1="510" y1="400" x2="290" y2="400" transform="rotate(326, 400, 400)" opacity="0.67"></line><line x1="542" y1="400" x2="258" y2="400" transform="rotate(328, 400, 400)" opacity="0.60"></line><line x1="560" y1="400" x2="240" y2="400" transform="rotate(330, 400, 400)" opacity="0.57"></line><line x1="463" y1="400" x2="337" y2="400" transform="rotate(332, 400, 400)" opacity="0.58"></line><line x1="531" y1="400" x2="269" y2="400" transform="rotate(334, 400, 400)" opacity="0.66"></line><line x1="540.5" y1="400" x2="259.5" y2="400" transform="rotate(336, 400, 400)" opacity="0.75"></line><line x1="475" y1="400" x2="325" y2="400" transform="rotate(338, 400, 400)" opacity="0.49"></line><line x1="124" y1="400" x2="676" y2="400" transform="rotate(340, 400, 400)" opacity="0.19"></line><line x1="469" y1="400" x2="331" y2="400" transform="rotate(342, 400, 400)" opacity="0.96"></line><line x1="185" y1="400" x2="615" y2="400" transform="rotate(344, 400, 400)" opacity="0.58"></line><line x1="361" y1="400" x2="439" y2="400" transform="rotate(346, 400, 400)" opacity="0.17"></line><line x1="100" y1="400" x2="700" y2="400" transform="rotate(348, 400, 400)" opacity="0.12"></line><line x1="285" y1="400" x2="515" y2="400" transform="rotate(350, 400, 400)" opacity="0.86"></line><line x1="454.5" y1="400" x2="345.5" y2="400" transform="rotate(352, 400, 400)" opacity="0.92"></line><line x1="266" y1="400" x2="534" y2="400" transform="rotate(354, 400, 400)" opacity="0.36"></line><line x1="428.5" y1="400" x2="371.5" y2="400" transform="rotate(356, 400, 400)" opacity="0.86"></line><line x1="315" y1="400" x2="485" y2="400" transform="rotate(358, 400, 400)" opacity="0.60"></line><line x1="324.5" y1="400" x2="475.5" y2="400" transform="rotate(360, 400, 400)" opacity="0.34"></line><line x1="466.5" y1="400" x2="333.5" y2="400" transform="rotate(362, 400, 400)" opacity="0.47"></line><line x1="569" y1="400" x2="231" y2="400" transform="rotate(364, 400, 400)" opacity="0.30"></line><line x1="243" y1="400" x2="557" y2="400" transform="rotate(366, 400, 400)" opacity="0.48"></line><line x1="94.5" y1="400" x2="705.5" y2="400" transform="rotate(368, 400, 400)" opacity="0.82"></line><line x1="310" y1="400" x2="490" y2="400" transform="rotate(370, 400, 400)" opacity="0.88"></line><line x1="521.5" y1="400" x2="278.5" y2="400" transform="rotate(372, 400, 400)" opacity="0.82"></line><line x1="334" y1="400" x2="466" y2="400" transform="rotate(374, 400, 400)" opacity="0.84"></line><line x1="90.5" y1="400" x2="709.5" y2="400" transform="rotate(376, 400, 400)" opacity="0.47"></line><line x1="558.5" y1="400" x2="241.5" y2="400" transform="rotate(378, 400, 400)" opacity="0.28"></line><line x1="259" y1="400" x2="541" y2="400" transform="rotate(380, 400, 400)" opacity="0.94"></line><line x1="592.5" y1="400" x2="207.5" y2="400" transform="rotate(382, 400, 400)" opacity="0.54"></line><line x1="169" y1="400" x2="631" y2="400" transform="rotate(384, 400, 400)" opacity="0.76"></line><line x1="354" y1="400" x2="446" y2="400" transform="rotate(386, 400, 400)" opacity="0.52"></line><line x1="262.5" y1="400" x2="537.5" y2="400" transform="rotate(388, 400, 400)" opacity="0.55"></line><line x1="235.5" y1="400" x2="564.5" y2="400" transform="rotate(390, 400, 400)" opacity="0.87"></line><line x1="550" y1="400" x2="250" y2="400" transform="rotate(392, 400, 400)" opacity="0.11"></line><line x1="166" y1="400" x2="634" y2="400" transform="rotate(394, 400, 400)" opacity="0.46"></line><line x1="540.5" y1="400" x2="259.5" y2="400" transform="rotate(396, 400, 400)" opacity="0.86"></line><line x1="369.5" y1="400" x2="430.5" y2="400" transform="rotate(398, 400, 400)" opacity="0.28"></line><line x1="422" y1="400" x2="378" y2="400" transform="rotate(400, 400, 400)" opacity="0.18"></line><line x1="444.5" y1="400" x2="355.5" y2="400" transform="rotate(402, 400, 400)" opacity="0.78"></line><line x1="78" y1="400" x2="722" y2="400" transform="rotate(404, 400, 400)" opacity="0.09"></line><line x1="161.5" y1="400" x2="638.5" y2="400" transform="rotate(406, 400, 400)" opacity="0.61"></line><line x1="330.5" y1="400" x2="469.5" y2="400" transform="rotate(408, 400, 400)" opacity="0.34"></line><line x1="95.5" y1="400" x2="704.5" y2="400" transform="rotate(410, 400, 400)" opacity="0.08"></line><line x1="180" y1="400" x2="620" y2="400" transform="rotate(412, 400, 400)" opacity="0.27"></line><line x1="149" y1="400" x2="651" y2="400" transform="rotate(414, 400, 400)" opacity="0.11"></line><line x1="197.5" y1="400" x2="602.5" y2="400" transform="rotate(416, 400, 400)" opacity="0.50"></line><line x1="589.5" y1="400" x2="210.5" y2="400" transform="rotate(418, 400, 400)" opacity="0.83"></line><line x1="407" y1="400" x2="393" y2="400" transform="rotate(420, 400, 400)" opacity="0.55"></line><line x1="88.5" y1="400" x2="711.5" y2="400" transform="rotate(422, 400, 400)" opacity="0.93"></line><line x1="456.5" y1="400" x2="343.5" y2="400" transform="rotate(424, 400, 400)" opacity="0.86"></line><line x1="90.5" y1="400" x2="709.5" y2="400" transform="rotate(426, 400, 400)" opacity="0.10"></line><line x1="396.5" y1="400" x2="403.5" y2="400" transform="rotate(428, 400, 400)" opacity="0.50"></line><line x1="451" y1="400" x2="349" y2="400" transform="rotate(430, 400, 400)" opacity="0.45"></line><line x1="332" y1="400" x2="468" y2="400" transform="rotate(432, 400, 400)" opacity="0.22"></line><line x1="258" y1="400" x2="542" y2="400" transform="rotate(434, 400, 400)" opacity="0.10"></line><line x1="131.5" y1="400" x2="668.5" y2="400" transform="rotate(436, 400, 400)" opacity="0.79"></line><line x1="157.5" y1="400" x2="642.5" y2="400" transform="rotate(438, 400, 400)" opacity="0.65"></line><line x1="221.5" y1="400" x2="578.5" y2="400" transform="rotate(440, 400, 400)" opacity="0.98"></line><line x1="243" y1="400" x2="557" y2="400" transform="rotate(442, 400, 400)" opacity="0.78"></line><line x1="318" y1="400" x2="482" y2="400" transform="rotate(444, 400, 400)" opacity="0.77"></line><line x1="420.5" y1="400" x2="379.5" y2="400" transform="rotate(446, 400, 400)" opacity="0.84"></line><line x1="336" y1="400" x2="464" y2="400" transform="rotate(448, 400, 400)" opacity="0.68"></line><line x1="151" y1="400" x2="649" y2="400" transform="rotate(450, 400, 400)" opacity="0.91"></line><line x1="221.5" y1="400" x2="578.5" y2="400" transform="rotate(452, 400, 400)" opacity="0.76"></line><line x1="355.5" y1="400" x2="444.5" y2="400" transform="rotate(454, 400, 400)" opacity="0.66"></line><line x1="424.5" y1="400" x2="375.5" y2="400" transform="rotate(456, 400, 400)" opacity="0.94"></line><line x1="222" y1="400" x2="578" y2="400" transform="rotate(458, 400, 400)" opacity="0.47"></line><line x1="569.5" y1="400" x2="230.5" y2="400" transform="rotate(460, 400, 400)" opacity="0.23"></line><line x1="187" y1="400" x2="613" y2="400" transform="rotate(462, 400, 400)" opacity="0.72"></line><line x1="63.5" y1="400" x2="736.5" y2="400" transform="rotate(464, 400, 400)" opacity="0.34"></line><line x1="454.5" y1="400" x2="345.5" y2="400" transform="rotate(466, 400, 400)" opacity="0.10"></line><line x1="511.5" y1="400" x2="288.5" y2="400" transform="rotate(468, 400, 400)" opacity="0.90"></line><line x1="152" y1="400" x2="648" y2="400" transform="rotate(470, 400, 400)" opacity="0.17"></line></g></svg>